<?xml version="1.0" encoding="UTF-8" standalone="no"?>
<svg
   xmlns:dc="http://purl.org/dc/elements/1.1/"
   xmlns:cc="http://creativecommons.org/ns#"
   xmlns:rdf="http://www.w3.org/1999/02/22-rdf-syntax-ns#"
   xmlns:svg="http://www.w3.org/2000/svg"
   xmlns="http://www.w3.org/2000/svg"
   xmlns:sodipodi="http://sodipodi.sourceforge.net/DTD/sodipodi-0.dtd"
   xmlns:inkscape="http://www.inkscape.org/namespaces/inkscape"
   version="1.1"
   id="Layer_1"
   x="0px"
   y="0px"
   viewBox="0 0 750 750"
   style="enable-background:new 0 0 750 750;"
   xml:space="preserve"
   sodipodi:docname="ComboSVG2.svg"
   inkscape:version="1.0.1 (3bc2e813f5, 2020-09-07)"><metadata
   id="metadata15"><rdf:RDF><cc:Work
       rdf:about=""><dc:format>image/svg+xml</dc:format><dc:type
         rdf:resource="http://purl.org/dc/dcmitype/StillImage" /><dc:title></dc:title></cc:Work></rdf:RDF></metadata><defs
   id="defs13" /><sodipodi:namedview
   pagecolor="#ffffff"
   bordercolor="#666666"
   borderopacity="1"
   objecttolerance="10"
   gridtolerance="10"
   guidetolerance="10"
   inkscape:pageopacity="0"
   inkscape:pageshadow="2"
   inkscape:window-width="1920"
   inkscape:window-height="1001"
   id="namedview11"
   showgrid="false"
   showguides="true"
   inkscape:guide-bbox="true"
   inkscape:snap-page="true"
   inkscape:zoom="0.73004611"
   inkscape:cx="137.61136"
   inkscape:cy="472.34056"
   inkscape:window-x="-9"
   inkscape:window-y="-9"
   inkscape:window-maximized="1"
   inkscape:current-layer="Layer_1"
   inkscape:document-rotation="0"><inkscape:grid
     type="xygrid"
     id="grid857" /></sodipodi:namedview>
<style
   type="text/css"
   id="style2">
	.st0{fill:#00A651;}
</style>


<path
   sodipodi:type="star"
   style="fill:#a2ffcd;stroke-width:85.087;paint-order:stroke fill markers"
   id="path855"
   sodipodi:sides="8"
   sodipodi:cx="1.2575278e-05"
   sodipodi:cy="387.64676"
   sodipodi:r1="437.21841"
   sodipodi:r2="403.93713"
   sodipodi:arg1="0"
   sodipodi:arg2="0.39269908"
   inkscape:flatsided="true"
   inkscape:rounded="0.75"
   inkscape:randomized="0"
   d="m 437.21843,387.64676 c 0,250.97436 49.40736,131.69443 -128.05831,309.1601 C 131.69444,874.27254 250.97438,824.86517 1.2575278e-5,824.86517 -250.97435,824.86517 -131.69442,874.27254 -309.16009,696.80686 -486.62577,519.34119 -437.2184,638.62112 -437.2184,387.64676 c 0,-250.97437 -49.40737,-131.69443 128.05831,-309.160107 C -131.69442,-98.979022 -250.97435,-49.571655 1.2575278e-5,-49.571655 250.97438,-49.571655 131.69444,-98.979022 309.16012,78.486653 486.62579,255.95233 437.21843,136.67239 437.21843,387.64676 Z"
   transform="matrix(-0.30150284,-0.72789223,0.72789223,-0.30150284,92.834939,491.87661)" /><circle
   style="fill:#ffffff;fill-opacity:1;stroke-width:67.3961;paint-order:stroke fill markers"
   id="path866"
   cx="375"
   cy="375"
   r="297.03134" /><path
   style="fill:#009847;fill-opacity:1;stroke-width:67.5549;paint-order:stroke fill markers"
   d="m 172.40674,655.38459 c -10.67071,-3.68572 -16.26486,-13.74915 -12.56517,-22.60375 1.59432,-3.81576 4.39832,-5.64668 13.03925,-8.51423 54.8767,-18.21111 95.97784,-51.81331 127.61862,-104.33451 11.57664,-19.2163 27.86778,-55.90451 28.75691,-64.76154 0.42691,-4.25254 -1.03659,-6.29701 -4.5076,-6.29701 -2.74342,0 -2.802,0.0688 -13.12565,15.42234 -29.04196,43.19172 -51.19001,66.62761 -73.66558,77.94905 -14.01295,7.05863 -25.34711,9.84577 -42.29198,10.39989 -24.80868,0.81125 -34.84016,-4.22208 -49.49778,-24.83566 -6.58188,-9.25633 -11.55558,-19.59714 -14.12653,-29.37041 -1.84254,-7.00428 -2.04876,-9.1216 -1.85029,-18.99813 0.54134,-26.93819 0.33846,-33.99885 -1.14068,-39.69749 -1.68541,-6.49339 -6.14978,-16.43726 -10.27445,-22.88517 -4.52182,-7.06873 -10.40351,-19.27772 -13.07168,-27.13371 -3.71394,-10.93505 -5.09594,-18.76937 -5.11201,-28.97918 -0.0183,-11.60755 2.06293,-20.67419 7.1077,-30.96406 3.00486,-6.12906 4.89836,-8.75025 10.10402,-13.98717 5.46771,-5.50054 7.62744,-7.03681 14.74265,-10.48682 4.58507,-2.2232 11.38405,-4.91587 15.10883,-5.98371 27.61357,-7.91637 54.04862,-5.12961 85.72284,9.03678 4.58506,2.05069 13.23999,5.92186 19.23319,8.60261 11.04411,4.94004 22.88709,8.85857 26.70624,8.8364 3.22554,-0.0187 4.37389,-1.08833 3.76653,-3.50827 -0.64615,-2.57443 -10.81116,-9.39843 -35.00191,-23.49756 -35.97395,-20.96676 -48.27806,-31.6077 -59.0669,-51.0828 -12.69216,-22.91085 -17.18287,-46.74351 -11.97012,-63.5266 4.87568,-15.69788 20.94601,-30.97882 41.3387,-39.30814 10.72097,-4.37894 19.11961,-6.2815 33.9534,-7.69154 25.69943,-2.44288 38.41512,-7.5004 53.10657,-21.1225 9.50402,-8.81223 16.74495,-13.06919 29.49777,-17.341782 14.36566,-4.812937 36.20129,-7.033333 45.78611,-4.655845 8.76411,2.173911 16.88335,6.921167 24.80873,14.505457 10.78183,10.31782 18.43411,25.42065 22.48239,44.37204 2.3169,10.84622 2.493,32.74537 0.35903,44.64674 -2.01937,11.26214 -6.81833,29.64458 -11.60713,44.46122 -7.35283,22.74972 -8.03957,25.32364 -8.47332,31.75801 -0.38428,5.70051 -0.25039,6.5754 1.3063,8.53496 1.46441,1.84339 2.33415,2.18336 5.5857,2.18336 5.59299,0 7.70876,-2.17939 13.86036,-14.27711 11.66963,-22.94954 27.86795,-49.55546 36.98677,-60.75119 21.09243,-25.89647 49.63877,-40.18212 78.17304,-39.12066 20.25682,0.75353 33.43243,8.58888 45.85954,27.27201 11.27218,16.94678 15.33325,28.87241 16.51665,48.5023 0.46644,7.73718 1.4028,15.30554 2.35747,19.05481 2.10975,8.28572 7.47429,18.83494 14.26575,28.05329 13.54813,18.3894 17.33983,24.96501 21.42259,37.15122 3.18333,9.50162 4.77639,19.40284 4.77639,29.68635 0,10.75518 -1.55646,18.07108 -5.68382,26.71584 -9.18346,19.23478 -34.73134,34.27151 -63.69888,37.49134 -21.18044,2.35425 -54.8483,-4.23876 -93.77404,-18.36333 -16.19761,-5.87747 -16.62128,-5.97474 -19.06059,-4.37644 -5.91507,3.87571 0.51187,8.86405 22.00585,17.08006 19.3143,7.38285 38.60739,16.43341 52.4099,24.58592 26.53472,15.67286 41.56955,34.49272 48.78644,61.06854 2.70136,9.94756 3.06775,25.54634 0.77636,33.05277 -4.30482,14.1024 -13.1243,24.78415 -29.57197,35.81625 -13.54612,9.08591 -27.6046,14.32309 -44.39998,16.54022 -11.3482,1.49806 -14.34854,2.29067 -20.62466,5.44847 -7.64242,3.84524 -11.07958,6.54285 -22.94239,18.006 -20.21559,19.53452 -29.59193,24.74563 -53.13156,29.529 -9.99207,2.03044 -13.32117,2.38617 -19.45785,2.0792 -6.84727,-0.34254 -7.95054,-0.64352 -14.68808,-4.00719 -20.41854,-10.19374 -35.50768,-29.185 -41.42738,-52.14068 -7.45088,-28.89338 -5.22444,-58.41056 8.45662,-112.11368 3.58491,-14.07205 3.87709,-15.85562 2.92342,-17.8454 -0.58278,-1.21591 -2.03609,-2.55416 -3.2296,-2.9739 -1.81757,-0.63922 -2.50676,-0.44879 -4.24365,1.17245 -2.97158,2.77376 -4.71279,6.56452 -7.32851,15.95476 -2.86918,10.30014 -9.4839,26.37894 -18.07637,43.93921 -19.23061,39.30132 -41.8796,71.52047 -69.76509,99.24378 -22.64626,22.51456 -40.34501,34.90569 -56.0888,39.26852 -7.66105,2.123 -19.2021,2.17619 -25.16663,0.116 z"
   id="path842-6" /></svg>
